<?xml version="1.0" encoding="UTF-8"?>
<svg xmlns="http://www.w3.org/2000/svg" width="262" height="262" viewBox="0 0 262 262" fill="none">
  <rect x="0.5" y="0.5" width="261" height="261" rx="25.5" fill="white" stroke="#D9D9D9"></rect>
  <g clip-path="url(#clip0_5598_28458)">
    <path d="M109.667 163C121.443 163 131 153.442 131 141.666V120.333H109.667C97.8908 120.333 88.3335 129.89 88.3335 141.666C88.3335 153.442 97.8908 163 109.667 163Z" fill="#0ACF83"></path>
    <path d="M88.3335 99.0003C88.3335 87.2243 97.8908 77.667 109.667 77.667H131V120.334H109.667C97.8908 120.334 88.3335 110.776 88.3335 99.0003Z" fill="#A259FF"></path>
    <path d="M88.3335 56.3333C88.3335 44.5573 97.8908 35 109.667 35H131V77.6667H109.667C97.8908 77.6667 88.3335 68.1093 88.3335 56.3333Z" fill="#F24E1E"></path>
    <path d="M131 35H152.333C164.109 35 173.667 44.5573 173.667 56.3333C173.667 68.1093 164.109 77.6667 152.333 77.6667H131V35Z" fill="#FF7262"></path>
    <path d="M173.667 99.0003C173.667 110.776 164.109 120.334 152.333 120.334C140.557 120.334 131 110.776 131 99.0003C131 87.2243 140.557 77.667 152.333 77.667C164.109 77.667 173.667 87.2243 173.667 99.0003Z" fill="#1ABCFE"></path>
  </g>
  <path d="M97.7128 220V203.2H110.145V205.408H100.233V210.568H106.761V212.704H100.233V220H97.7128ZM112.436 220V207.784H114.836V220H112.436ZM113.636 205.816C113.236 205.816 112.892 205.672 112.604 205.384C112.316 205.08 112.172 204.728 112.172 204.328C112.172 203.912 112.316 203.568 112.604 203.296C112.892 203.008 113.236 202.864 113.636 202.864C114.052 202.864 114.404 203.008 114.692 203.296C114.98 203.568 115.124 203.912 115.124 204.328C115.124 204.728 114.98 205.08 114.692 205.384C114.404 205.672 114.052 205.816 113.636 205.816ZM124.191 225.136C123.295 225.136 122.423 225.032 121.575 224.824C120.727 224.616 119.959 224.32 119.271 223.936L120.183 222.064C120.903 222.432 121.575 222.696 122.199 222.856C122.839 223.032 123.479 223.12 124.119 223.12C125.191 223.12 125.999 222.872 126.543 222.376C127.103 221.88 127.383 221.152 127.383 220.192V218.8C126.311 219.648 125.087 220.072 123.711 220.072C122.591 220.072 121.559 219.8 120.615 219.256C119.687 218.696 118.951 217.944 118.407 217C117.863 216.04 117.591 214.984 117.591 213.832C117.591 212.664 117.863 211.608 118.407 210.664C118.967 209.704 119.711 208.952 120.639 208.408C121.583 207.848 122.639 207.568 123.807 207.568C124.463 207.568 125.095 207.68 125.703 207.904C126.327 208.112 126.895 208.416 127.407 208.816V207.784H129.783V220.192C129.783 221.776 129.295 222.992 128.319 223.84C127.359 224.704 125.983 225.136 124.191 225.136ZM124.023 218.008C124.727 218.008 125.367 217.888 125.943 217.648C126.519 217.392 126.999 217.032 127.383 216.568V211.096C126.999 210.648 126.511 210.296 125.919 210.04C125.343 209.784 124.711 209.656 124.023 209.656C123.255 209.656 122.559 209.84 121.935 210.208C121.327 210.576 120.839 211.08 120.471 211.72C120.119 212.344 119.943 213.048 119.943 213.832C119.943 214.616 120.119 215.328 120.471 215.968C120.839 216.592 121.327 217.088 121.935 217.456C122.559 217.824 123.255 218.008 124.023 218.008ZM133.083 220V207.784H135.483V208.96C136.395 208.016 137.539 207.544 138.915 207.544C139.747 207.544 140.483 207.728 141.124 208.096C141.78 208.464 142.3 208.96 142.684 209.584C143.196 208.912 143.796 208.408 144.484 208.072C145.172 207.72 145.948 207.544 146.812 207.544C147.724 207.544 148.516 207.744 149.188 208.144C149.876 208.544 150.412 209.104 150.796 209.824C151.196 210.544 151.396 211.376 151.396 212.32V220H148.996V212.728C148.996 211.768 148.74 211.016 148.228 210.472C147.732 209.912 147.052 209.632 146.188 209.632C145.595 209.632 145.06 209.768 144.58 210.04C144.1 210.312 143.684 210.728 143.332 211.288C143.364 211.448 143.388 211.616 143.404 211.792C143.419 211.968 143.427 212.144 143.427 212.32V220H141.052V212.728C141.052 211.768 140.796 211.016 140.284 210.472C139.787 209.912 139.107 209.632 138.243 209.632C137.667 209.632 137.147 209.76 136.683 210.016C136.219 210.256 135.819 210.624 135.483 211.12V220H133.083ZM158.498 220.216C157.618 220.216 156.842 220.064 156.17 219.76C155.498 219.44 154.97 219 154.586 218.44C154.202 217.88 154.01 217.232 154.01 216.496C154.01 215.344 154.45 214.44 155.33 213.784C156.21 213.112 157.418 212.776 158.954 212.776C160.154 212.776 161.266 213.008 162.29 213.472V212.176C162.29 211.296 162.034 210.64 161.522 210.208C161.026 209.776 160.29 209.56 159.314 209.56C158.754 209.56 158.17 209.648 157.562 209.824C156.954 209.984 156.274 210.24 155.522 210.592L154.634 208.792C155.562 208.36 156.426 208.048 157.226 207.856C158.026 207.648 158.834 207.544 159.65 207.544C161.234 207.544 162.458 207.92 163.322 208.672C164.202 209.424 164.642 210.496 164.642 211.888V220H162.29V218.944C161.746 219.376 161.162 219.696 160.538 219.904C159.914 220.112 159.234 220.216 158.498 220.216ZM156.314 216.448C156.314 217.04 156.562 217.52 157.058 217.888C157.57 218.256 158.234 218.44 159.05 218.44C159.69 218.44 160.274 218.344 160.802 218.152C161.346 217.96 161.842 217.664 162.29 217.264V215.2C161.826 214.928 161.338 214.736 160.826 214.624C160.33 214.496 159.77 214.432 159.146 214.432C158.266 214.432 157.57 214.616 157.058 214.984C156.562 215.336 156.314 215.824 156.314 216.448Z" fill="#2E2E2E"></path>
  <defs>
    <clipPath id="clip0_5598_28458">
      <rect width="128" height="128" fill="white" transform="translate(67 35)"></rect>
    </clipPath>
  </defs>
</svg>
